<svg xmlns="http://www.w3.org/2000/svg" viewBox="0 0 3000 3000" width="550" height="550"><path fill="#ffffff" d="M0 0h3000v3000H0z" class="colorFFF svgShape"></path><path fill="#f2889e" d="M1635.34 811.025c-105.116 0-190.635-85.519-190.635-190.636 0-105.122 85.519-190.645 190.635-190.645 105.122 0 190.646 85.523 190.646 190.645-.001 105.118-85.524 190.636-190.646 190.636zm0-377.11c-102.817 0-186.465 83.652-186.465 186.475 0 102.817 83.647 186.466 186.465 186.466 102.823 0 186.476-83.648 186.476-186.466-.001-102.823-83.653-186.475-186.476-186.475z" class="colorF2889E svgShape"></path><path fill="#7fd4e3" d="M513.82 1541.155c-108.889 0-197.476-88.587-197.476-197.476 0-108.888 88.587-197.475 197.476-197.475 108.888 0 197.475 88.587 197.475 197.475 0 108.889-88.587 197.476-197.475 197.476zm0-390.78c-106.589 0-193.306 86.716-193.306 193.305 0 106.589 86.717 193.306 193.306 193.306 106.588 0 193.305-86.717 193.305-193.306 0-106.589-86.716-193.305-193.305-193.305z" class="color7FD4E3 svgShape"></path><path fill="#7da3fb" d="M434.75 1356.05c-36.85 0-66.71 29.86-66.71 66.7 0 36.85 29.86 66.71 66.71 66.71 36.84 0 66.7-29.86 66.7-66.71 0-36.84-29.86-66.7-66.7-66.7z" class="color7DA3FB svgShape"></path><path fill="#ffe072" d="M2273.45 1936.795c-61.679 0-119.665-24.019-163.277-67.632-43.61-43.612-67.628-101.598-67.628-163.273 0-61.68 24.018-119.666 67.628-163.277 43.611-43.61 101.598-67.628 163.277-67.628 61.68 0 119.666 24.018 163.276 67.629 43.61 43.61 67.628 101.597 67.628 163.276 0 61.677-24.018 119.661-67.628 163.273-43.611 43.613-101.597 67.632-163.276 67.632zm0-457.64c-60.566 0-117.505 23.583-160.328 66.406s-66.407 99.762-66.407 160.328c0 125.022 101.713 226.735 226.735 226.735 125.021 0 226.734-101.713 226.734-226.735.001-125.021-101.712-226.734-226.734-226.734z" class="colorFFE072 svgShape"></path><path fill="#f7607e" d="M1241.72 2380.729c-8.91 0-16.979 3.61-22.819 9.45-5.84 5.841-9.45 13.91-9.45 22.82 0 8.92 3.61 16.99 9.45 22.82 5.84 5.85 13.91 9.46 22.819 9.46 8.91 0 16.98-3.61 22.82-9.46 5.84-5.83 9.46-13.9 9.46-22.82 0-8.91-3.62-16.979-9.46-22.82-5.84-5.839-13.91-9.45-22.82-9.45zm-39.55-7.279c10.12-10.12 24.1-16.391 39.55-16.391s29.431 6.271 39.561 16.391c10.12 10.12 16.38 24.109 16.38 39.55 0 15.45-6.26 29.43-16.38 39.56-10.13 10.121-24.11 16.381-39.561 16.381s-29.43-6.261-39.55-16.381c-10.13-10.129-16.39-24.109-16.39-39.56 0-15.44 6.26-29.43 16.39-39.55z" class="colorF7607E svgShape"></path><path fill="#7fd4e3" d="M2461.939 1908.58a19.466 19.466 0 0 0-13.819 5.72 19.485 19.485 0 0 0-5.72 13.811 19.467 19.467 0 0 0 5.72 13.81c3.54 3.54 8.42 5.72 13.819 5.72 5.391 0 10.271-2.18 13.811-5.72 3.53-3.53 5.72-8.41 5.72-13.81 0-5.391-2.189-10.28-5.72-13.811a19.461 19.461 0 0 0-13.811-5.72zm-23.939-4.41a33.726 33.726 0 0 1 23.939-9.92c9.341 0 17.811 3.79 23.931 9.92 6.13 6.13 9.92 14.59 9.92 23.94 0 9.35-3.79 17.81-9.92 23.939a33.723 33.723 0 0 1-23.931 9.92c-9.35 0-17.819-3.79-23.939-9.92-6.13-6.13-9.92-14.59-9.92-23.939 0-9.35 3.79-17.81 9.92-23.94z" class="color7FD4E3 svgShape"></path><path fill="#eff3f7" d="M1325.72 2304.229H486.5V802.71h839.22z" class="colorEFF3F7 svgShape"></path><path fill="#d0d3d4" d="M649.61 769.19c0 5.649-4.58 10.229-10.23 10.229-5.64 0-10.22-4.58-10.22-10.229 0-5.65 4.58-10.221 10.22-10.221 5.65.001 10.23 4.571 10.23 10.221zm0 59.14c0 5.64-4.58 10.22-10.23 10.22-5.64 0-10.22-4.58-10.22-10.22 0-5.65 4.58-10.23 10.22-10.23 5.65 0 10.23 4.58 10.23 10.23zm0 59.13c0 5.65-4.58 10.22-10.23 10.22-5.64 0-10.22-4.569-10.22-10.22s4.58-10.229 10.22-10.229c5.65-.001 10.23 4.579 10.23 10.229zm0 59.13c0 5.65-4.58 10.23-10.23 10.23-5.64 0-10.22-4.58-10.22-10.23 0-5.64 4.58-10.22 10.22-10.22 5.65 0 10.23 4.58 10.23 10.22zm0 59.139c0 5.65-4.58 10.221-10.23 10.221-5.64 0-10.22-4.57-10.22-10.221 0-5.649 4.58-10.229 10.22-10.229 5.65 0 10.23 4.58 10.23 10.229zM594.92 769.19c0 5.649-4.58 10.229-10.22 10.229-5.65 0-10.23-4.58-10.23-10.229 0-5.65 4.58-10.221 10.23-10.221 5.64.001 10.22 4.571 10.22 10.221zm-54.69 0c0 5.649-4.57 10.229-10.221 10.229-5.649 0-10.229-4.58-10.229-10.229 0-5.65 4.58-10.221 10.229-10.221a10.214 10.214 0 0 1 10.221 10.221zm54.69 59.14c0 5.64-4.58 10.22-10.22 10.22-5.65 0-10.23-4.58-10.23-10.22 0-5.65 4.58-10.23 10.23-10.23 5.64 0 10.22 4.58 10.22 10.23zm-54.69 0c0 5.64-4.57 10.22-10.221 10.22-5.649 0-10.229-4.58-10.229-10.22 0-5.65 4.58-10.23 10.229-10.23 5.651 0 10.221 4.58 10.221 10.23zm54.69 59.13c0 5.65-4.58 10.22-10.22 10.22-5.65 0-10.23-4.569-10.23-10.22s4.58-10.229 10.23-10.229c5.64-.001 10.22 4.579 10.22 10.229zm-54.69 0c0 5.65-4.57 10.22-10.221 10.22-5.649 0-10.229-4.569-10.229-10.22s4.58-10.229 10.229-10.229c5.651-.001 10.221 4.579 10.221 10.229zm54.69 59.13c0 5.65-4.58 10.23-10.22 10.23-5.65 0-10.23-4.58-10.23-10.23 0-5.64 4.58-10.22 10.23-10.22 5.64 0 10.22 4.58 10.22 10.22zm-54.69 0c0 5.65-4.57 10.23-10.221 10.23-5.649 0-10.229-4.58-10.229-10.23 0-5.64 4.58-10.22 10.229-10.22 5.651 0 10.221 4.58 10.221 10.22zm54.69 59.139c0 5.65-4.58 10.221-10.22 10.221-5.65 0-10.23-4.57-10.23-10.221 0-5.649 4.58-10.229 10.23-10.229 5.64 0 10.22 4.58 10.22 10.229zm-54.69 0c0 5.65-4.57 10.221-10.221 10.221-5.649 0-10.229-4.57-10.229-10.221 0-5.649 4.58-10.229 10.229-10.229 5.651 0 10.221 4.58 10.221 10.229z" class="colorD0D3D4 svgShape"></path><path fill="#ffffff" d="M2222.07 585.35h-204.631v26.82c0 25.81-21.129 46.94-46.939 46.94h-262.12c-25.81 0-46.939-21.12-46.939-46.94v-26.82h-231.29c-36.34 0-66.08 29.74-66.08 66.08v1719.68c0 36.34 29.74 66.08 66.08 66.08h791.92c36.34 0 66.08-29.73 66.08-66.08V651.43c-.001-36.34-29.741-66.08-66.081-66.08z" class="colorFFF svgShape"></path><path fill="#353640" d="M2222.07 2439.275h-791.92c-37.586 0-68.165-30.579-68.165-68.165V651.43c0-37.586 30.579-68.165 68.165-68.165h231.29c1.151 0 2.085.934 2.085 2.085v26.82c0 24.733 20.122 44.855 44.854 44.855h262.12c24.732 0 44.854-20.122 44.854-44.855v-26.82c0-1.151.934-2.085 2.085-2.085h204.631c37.586 0 68.165 30.579 68.165 68.165v1719.68c.001 37.586-30.578 68.165-68.164 68.165zm-791.92-1851.84c-35.287 0-63.995 28.708-63.995 63.995v1719.68c0 35.287 28.708 63.995 63.995 63.995h791.92c35.287 0 63.995-28.708 63.995-63.995V651.43c0-35.287-28.708-63.995-63.995-63.995h-202.546v24.735c0 27.033-21.992 49.025-49.024 49.025h-262.12c-27.032 0-49.024-21.993-49.024-49.025v-24.735H1430.15z" class="color353640 svgShape"></path><path fill="#7da3fb" d="M1482.04 2221.28h688.14c11.551 0 21-9.46 21-21.01v-489.34c0-11.55-9.449-21-21-21h-688.14c-11.55 0-21 9.45-21 21v489.341c0 11.549 9.45 21.009 21 21.009z" class="color7DA3FB svgShape"></path><path fill="#ffffff" d="M1542.01 1775.17h568.2v6.69h-568.2zm0 88.54h568.2v6.69h-568.2zm0 88.55h568.2v6.68h-568.2zm0 88.54h568.2v6.69h-568.2zm0 88.551h568.2v6.679h-568.2z" class="colorFFF svgShape"></path><path fill="#647edd" d="M1868.4 997.31h298.34v6.82H1868.4zm0 68.75h298.34v6.81H1868.4zm0 68.75h298.34v6.81H1868.4zm0 68.74h298.34v6.82H1868.4zm-407.91 68.75h634.58v6.81h-634.58zm109.571 108.34h596.679v6.82h-596.679zm-84.581 68.75h681.26v6.81h-681.26zm0 68.75h681.26v6.81h-681.26zm0 68.75h547.081v6.81H1485.48zm382.92-658.32h298.34v6.81H1868.4zm0-68.75h298.34v6.81H1868.4z" class="color647EDD svgShape"></path><path fill="#7da3fb" d="M1505.68 862.7h260.67c24.851 0 45.181 20.33 45.181 45.18v260.68c0 24.851-20.33 45.181-45.181 45.181h-260.67c-24.859 0-45.189-20.33-45.189-45.181V907.88c-.001-24.85 20.329-45.18 45.189-45.18z" class="color7DA3FB svgShape"></path><path fill="#ffe072" d="m1621.95 1043.979 120.89 120.891h-264.38l120.89-120.891c6.211-6.208 16.38-6.208 22.6 0z" class="colorFFE072 svgShape"></path><path fill="#f7607e" d="m1703.48 1074.79 90.08 90.08H1594.2l90.079-90.08c5.282-5.28 13.921-5.28 19.201 0z" class="colorF7607E svgShape"></path><path fill="#ffffff" d="M1699.28 928.76c26.149 0 47.34 21.19 47.34 47.33 0 26.15-21.19 47.34-47.34 47.34-26.14 0-47.33-21.189-47.33-47.34 0-26.14 21.191-47.33 47.33-47.33zm-220.82 238.195a2.085 2.085 0 0 1-1.474-3.559l120.889-120.891a2.086 2.086 0 0 1 2.949 2.948l-120.89 120.891c-.407.407-.94.611-1.474.611zm115.74 0a2.083 2.083 0 0 1-1.475-3.559l90.08-90.08a2.086 2.086 0 0 1 2.949 2.948l-90.08 90.08a2.078 2.078 0 0 1-1.474.611z" class="colorFFF svgShape"></path><path fill="#353640" d="M1766.35 864.785h-260.67a2.086 2.086 0 0 1 0-4.17h260.67a2.086 2.086 0 0 1 0 4.17z" class="color353640 svgShape"></path><path fill="#2a1d19" d="M1766.35 1215.825h-260.67a2.086 2.086 0 0 1 0-4.17h260.67a2.086 2.086 0 0 1 0 4.17z" class="color2A1D19 svgShape"></path><path fill="#d0d3d4" d="M1430.15 621.29h179.69v25h-179.69zm719 0h72.92v25h-72.92z" class="colorD0D3D4 svgShape"></path><path fill="#949899" d="M1581.9 739.78h488.43v66.13H1581.9z" class="color949899 svgShape"></path><path fill="#ffffff" d="M2453.64 1340.11v364.25c0 33.26-26.97 60.229-60.229 60.229h-240.9l60.23-60.229v-364.25c0-33.261 26.96-60.221 60.22-60.221h240.899c-33.26.001-60.22 26.961-60.22 60.221z" class="colorFFF svgShape"></path><path fill="#d0d3d4" d="M2393.41 1766.675h-240.9a2.084 2.084 0 0 1-1.475-3.559l59.62-59.618V1340.11c0-34.355 27.95-62.306 62.305-62.306h240.899a2.086 2.086 0 0 1 0 4.17c-32.056 0-58.135 26.08-58.135 58.136v364.25c.001 34.361-27.953 62.315-62.314 62.315zm-235.866-4.17h235.866c32.061 0 58.145-26.084 58.145-58.145v-364.25c0-26.457 16.577-49.115 39.888-58.136H2272.96c-32.056 0-58.135 26.08-58.135 58.136v364.25c0 .553-.22 1.083-.61 1.475l-56.671 56.67z" class="colorD0D3D4 svgShape"></path><path fill="#949899" d="M2152.51 1764.59h240.9c-33.26 0-60.221-26.97-60.221-60.229H2092.29c0 33.259 26.96 60.229 60.22 60.229z" class="color949899 svgShape"></path><path fill="#d0d3d4" d="M2393.41 1766.675h-240.9c-34.354 0-62.305-27.954-62.305-62.314 0-1.151.934-2.085 2.085-2.085h240.899c1.151 0 2.085.934 2.085 2.085 0 32.061 26.08 58.145 58.136 58.145a2.086 2.086 0 0 1 0 4.169zm-298.998-60.23c1.103 31.099 26.74 56.06 58.098 56.06h218.484c-22.699-8.782-39.01-30.497-39.855-56.06h-236.727z" class="colorD0D3D4 svgShape"></path><path fill="#949899" d="M2422.8 1374.485h-179.23a2.086 2.086 0 0 1 0-4.17h179.23a2.086 2.086 0 0 1 0 4.17zm0 42.81h-179.23a2.086 2.086 0 0 1 0-4.17h179.23a2.086 2.086 0 0 1 0 4.17zm0 42.81h-179.23a2.086 2.086 0 0 1 0-4.17h179.23a2.086 2.086 0 0 1 0 4.17zm0 42.81h-179.23a2.086 2.086 0 0 1 0-4.17h179.23a2.086 2.086 0 0 1 0 4.17zm0 42.81h-179.23a2.086 2.086 0 0 1 0-4.17h179.23a2.086 2.086 0 0 1 0 4.17zm0 42.81h-179.23a2.086 2.086 0 0 1 0-4.17h179.23a2.086 2.086 0 0 1 0 4.17zm0 42.81h-179.23a2.086 2.086 0 0 1 0-4.17h179.23a2.086 2.086 0 0 1 0 4.17zm0 42.81h-179.23a2.086 2.086 0 0 1 0-4.17h179.23a2.086 2.086 0 0 1 0 4.17zm-197.59-595.345 15.2-8.77c2.79-1.61 6.38-.65 7.99 2.14l42.479 73.58c1.61 2.78.649 6.38-2.14 7.99l-15.2 8.78c-2.79 1.6-6.39.64-8-2.15l-42.479-73.57c-1.6-2.789-.64-6.39 2.15-8z" class="color949899 svgShape"></path><path fill="#d0d3d4" d="m2261.35 1094.61 27.07 46.88c-11.279 1.2-22.74-4.17-28.779-14.63-6.041-10.46-4.971-23.08 1.709-32.25z" class="colorD0D3D4 svgShape"></path><path fill="#647edd" d="M2393.28 940.24s-46.91-81.25-55.24-95.681c-8.33-14.42-17.04 1.58-14.49 6 0 0-17.399 78.9-119.93 138.101l-46.55 87.96 99.449 3.66c102.53-59.19 179.561-34.811 179.561-34.811 2.561 4.431 20.77 4.88 12.439-9.55l-55.239-95.679z" class="color647EDD svgShape"></path><path fill="#f26671" d="m2173.12 1006.271 30.5-17.611 52.9 91.62-30.5 17.61z" class="colorF26671 svgShape"></path><path fill="#647edd" d="M2126.57 1094.229s37.72 17.37 50.18 20.971c12.46 3.609 26.89-4.38 32.08-7.38 5.189-3 17.189-9.931 17.189-9.931l-26.449-45.81-26.45-45.811s-12 6.931-17.19 9.92c-5.199 3-19.33 11.5-22.439 24.091-3.111 12.601-6.921 53.95-6.921 53.95z" class="color647EDD svgShape"></path><path fill="#2a1d19" d="M2145.662 1039.435a2.084 2.084 0 0 1-1.044-3.891l34.06-19.659a2.085 2.085 0 1 1 2.084 3.611l-34.06 19.659c-.328.19-.686.28-1.04.28zm12.73 22.061a2.084 2.084 0 0 1-1.044-3.891l34.061-19.66a2.085 2.085 0 1 1 2.084 3.611l-34.061 19.66a2.08 2.08 0 0 1-1.04.28zm12.74 22.069a2.085 2.085 0 0 1-1.045-3.891l34.06-19.67a2.086 2.086 0 0 1 2.086 3.611l-34.06 19.67c-.328.19-.688.28-1.041.28zm12.74 22.06a2.084 2.084 0 0 1-1.044-3.891l34.06-19.66a2.084 2.084 0 1 1 2.084 3.611l-34.06 19.66c-.328.19-.686.28-1.04.28zm42.149-5.65a2.084 2.084 0 0 1-1.045-3.891l28.694-16.567-51.856-89.814a2.085 2.085 0 1 1 3.612-2.085l52.899 91.62a2.083 2.083 0 0 1-.763 2.848l-30.5 17.609c-.329.19-.687.28-1.041.28z" class="color2A1D19 svgShape"></path><path fill="#ffffff" d="M2226.892 991.675a2.086 2.086 0 0 1-.951-3.942c.646-.331 65.219-33.972 112.677-110.631a2.086 2.086 0 0 1 3.545 2.196c-48.099 77.695-113.667 111.813-114.324 112.148a2.07 2.07 0 0 1-.947.229z" class="colorFFF svgShape"></path><path fill="#353640" d="M2432.632 1035.555a2.084 2.084 0 0 1-1.808-1.043l-101.899-176.51a2.084 2.084 0 1 1 3.612-2.085l101.899 176.51a2.084 2.084 0 0 1-1.804 3.128z" class="color353640 svgShape"></path><path fill="#f7607e" d="M2422.4 810.521c15.93-16.851 42.489-17.601 59.34-1.671 14.729 13.91 17.149 35.96 6.899 52.54l4.88 16.351-16.59-3.95c-15.98 11.17-38.13 9.99-52.85-3.93-16.85-15.921-17.6-42.491-1.679-59.34z" class="colorF7607E svgShape"></path><path fill="#ffffff" d="M2452.91 826.65c2.54-5.091 5.08-7.63 10.17-7.63 5.609 0 10.16 4.56 10.16 10.17 0 10.159-10.16 20.33-20.33 30.489-10.17-10.159-20.33-20.33-20.33-30.489 0-5.61 4.55-10.17 10.159-10.17 5.091.001 7.63 2.54 10.171 7.63z" class="colorFFF svgShape"></path><path fill="#f7607e" d="M2381.1 660.18c-31.83-33.67-84.92-35.17-118.59-3.35-29.43 27.81-34.279 71.87-13.79 105.01l-9.75 32.66 33.16-7.89c31.93 22.33 76.19 19.97 105.62-7.851 33.67-31.819 35.17-84.909 3.35-118.579z" class="colorF7607E svgShape"></path><path fill="#ffffff" d="M2320.13 692.4c-5.08-10.15-10.16-15.23-20.31-15.23-11.221 0-20.32 9.101-20.32 20.311 0 20.319 20.32 40.63 40.63 60.949 20.319-20.319 40.63-40.63 40.63-60.949 0-11.21-9.101-20.311-20.311-20.311-10.16 0-15.24 5.08-20.319 15.23z" class="colorFFF svgShape"></path><path fill="#fbcc7c" d="M2484.12 2361.09h-246.58l57.54 207.08h131.5z" class="colorFBCC7C svgShape"></path><path fill="#ffffff" d="M2470.93 2410.615h-202.68a2.086 2.086 0 0 1 0-4.17h202.68a2.086 2.086 0 0 1 0 4.17zm-40.89 10.699h-168.27a2.086 2.086 0 0 1 0-4.17h168.271a2.086 2.086 0 0 1-.001 4.17z" class="colorFFF svgShape"></path><path fill="#89a633" d="M2681.57 2231.271s-12.051 15.229-91.84-12.051c-79.78-27.279-121.681-39.88-147.371 31.16 0 0 6.45 72.11 117.271 74.35 110.809 2.24 121.94-93.459 121.94-93.459z" class="color89A633 svgShape"></path><path fill="#2a1d19" d="M2600.85 2295.37s-40.959-38.78-69.47-44.03c0 0 40.97 24.7 69.47 44.03zm-82.69-7.44c-.5-2.59-30.66-41.45-30.66-41.45s22.99 15.45 30.66 41.45zm46.84-66.72-31.14 9s13.67-10.75 31.14-9zm-46.21-10.26-24.26 13.77s4.76-11.78 24.26-13.77z" class="color2A1D19 svgShape"></path><path fill="#b6d563" d="M2556.34 1970.82s42.01 42.76 21.2 134.489c-20.81 91.73-139.58 63.92-139.58 63.92s-31.93-98.229 32.05-110.18c63.98-11.939 81.71-58.579 86.33-88.229z" class="colorB6D563 svgShape"></path><path fill="#2a1d19" d="M2569.08 2076.75s-16.38 14.26-33.53 17.729c0 0 22.74 1.931 33.53-17.729zm-52.22-20.43-3.47 47.03c.001.001-6.73-31.35 3.47-47.03zm-41.24 21.201s8.09 22.75-3.47 53.189c0 0 5.01-39.311 3.47-53.189zm68.99 55.309s-17.931 11.75-56.47 3.47c.001 0 39.89.38 56.47-3.47z" class="color2A1D19 svgShape"></path><path fill="#2a1d19" d="M2360.831 2362.13a1.042 1.042 0 0 1-1.021-1.248c32.574-160.159 68.043-187.704 121.73-229.398 7.522-5.843 15.302-11.884 23.54-18.64 34.749-28.484 47.68-61.053 52.407-83.359 5.129-24.192 1.991-41.881 1.959-42.057a1.04 1.04 0 0 1 2.045-.377c.033.179 3.242 18.196-1.948 42.77-4.787 22.659-17.893 55.735-53.145 84.633-8.259 6.772-16.049 12.822-23.583 18.673-53.321 41.41-88.547 68.767-120.967 228.17a1.038 1.038 0 0 1-1.017.833z" class="color2A1D19 svgShape"></path><path fill="#2a1d19" d="M2360.83 2362.13a1.041 1.041 0 0 1-.957-1.447c25.285-59.451 49.792-93.612 79.463-110.766 29.34-16.962 64.733-18.747 118.345-5.969 98.083 23.364 113.813-2.201 113.96-2.463a1.046 1.046 0 0 1 1.412-.401c.499.277.684.902.41 1.404-.614 1.126-16.193 27.322-116.265 3.483-101.78-24.26-147.439 2.731-195.411 115.525a1.039 1.039 0 0 1-.957.634z" class="color2A1D19 svgShape"></path><path fill="#89a633" d="M2304.58 2248.26s-14.77-.29-40.29 37.99c-25.51 38.271-62.3 79.8-162.57 19.28 0 0 32.931-3.561 61.41-26.11 28.479-22.54 63.49-64.38 141.45-31.16z" class="color89A633 svgShape"></path><path fill="#2a1d19" d="M2246.18 2269s-30.85 40.64-53.399 49.25c-.001 0 34.709-2.67 53.399-49.25zm-51.03 24.03s-22.25 16.609-35.301 23.729c.001.001 21.951-2.079 35.301-23.729zm41.39-33.97s-28.92-1.93-35.45-1.039c0 0 9.34-8.901 35.45 1.039z" class="color2A1D19 svgShape"></path><path fill="#2a1d19" d="M2360.829 2362.13a1.04 1.04 0 0 1-1.037-.976c-.026-.43-2.859-43.404-19.786-80.17-7.719-16.773-16.779-26.412-28.513-30.332-17.71-5.916-43.446.764-80.999 21.022-67.133 36.217-94.073 35.477-95.18 35.424-.573-.025-1.017-.51-.992-1.083s.529-1.035 1.082-.995c.28.005 27.629.685 94.102-35.176 38.095-20.55 64.354-27.275 82.646-21.165 12.316 4.114 21.768 14.104 29.742 31.436 17.094 37.127 19.946 80.477 19.974 80.91.035.573-.4 1.067-.974 1.103l-.065.002z" class="color2A1D19 svgShape"></path><path fill="#677d22" d="M2366.7 2234.39s26.46-77.57-53.45-107.91c-79.91-30.35-110.9-94.079-110.9-94.079s-32.18 51.529 6.761 132.359c38.929 80.83 157.589 69.63 157.589 69.63z" class="color677D22 svgShape"></path><path fill="#2a1d19" d="m2335.57 2191.82-8.91-45.29s14.061 20.04 8.91 45.29zm-25.83 5.56-46.32 4.4s19.04-11.58 46.32-4.4zm-20.08-69.2 3.49 30.101c1.16-.221 3.51-17.711-3.49-30.101zm-26.59 32.46-44.54-6.72s24.46-6.53 44.54 6.72z" class="color2A1D19 svgShape"></path><path fill="#2a1d19" d="M2360.83 2362.13a1.04 1.04 0 0 1-.973-1.406c13.287-35.304 23.788-66.903 17.664-96.12-6.225-29.698-29.114-56.034-74.218-85.392-49.062-31.929-71.9-60.53-82.42-78.901-11.481-20.05-11.258-32.386-11.243-32.9.017-.573.479-.991 1.068-1.009a1.043 1.043 0 0 1 1.012 1.068c-.004.121-.188 12.414 11.086 32.013 10.426 18.127 33.052 46.371 81.632 77.985 45.604 29.684 68.771 56.426 75.119 86.709 6.238 29.765-4.35 61.666-17.753 97.279a1.042 1.042 0 0 1-.974.674z" class="color2A1D19 svgShape"></path><path fill="#f7607e" d="M2147.93 2410.41h-286.76c-43.38 0-78.88 35.489-78.88 78.87v.01c0 43.38 35.5 78.88 78.88 78.88h286.76v-157.76z" class="colorF7607E svgShape"></path><path fill="#fd3e42" d="M2343.49 2410.41h-286.76c-43.381 0-78.881 35.489-78.881 78.88 0 43.38 35.5 78.88 78.881 78.88h286.76v-18.08h-286.76c-33.41 0-60.801-27.4-60.801-60.8 0-33.41 27.391-60.811 60.801-60.811h286.76v-18.069z" class="colorFD3E42 svgShape"></path><path fill="#ffffff" d="M2323.77 2428.479h-267.04c-33.41 0-60.801 27.4-60.801 60.811 0 33.4 27.391 60.8 60.801 60.8h267.039v-121.611z" class="colorFFF svgShape"></path><path fill="#d0d3d4" d="M2307.34 2456.035H2059.2a2.086 2.086 0 0 1 0-4.17h248.14a2.086 2.086 0 0 1 0 4.17zm-20.8 25.47h-146.3a2.086 2.086 0 0 1 0-4.17h146.3a2.086 2.086 0 0 1 0 4.17zm-11.47 36.16h-209.42a2.086 2.086 0 0 1 0-4.17h209.42a2.086 2.086 0 0 1 0 4.17z" class="colorD0D3D4 svgShape"></path><path fill="#353640" d="M2323.77 2552.175h-267.04a2.086 2.086 0 0 1 0-4.17h264.954V2439.16a2.086 2.086 0 0 1 4.17 0v110.93a2.085 2.085 0 0 1-2.084 2.085zm-302.961 9.361c-.315 0-.637-.072-.938-.225-37.305-18.841-42.562-55.825-42.768-57.391a2.086 2.086 0 0 1 1.796-2.339 2.09 2.09 0 0 1 2.339 1.794c.048.362 5.23 36.394 40.514 54.213a2.088 2.088 0 0 1-.943 3.948z" class="color353640 svgShape"></path><path fill="#7fd4e3" d="M2174.84 2297.83h-288.06c-30.96 0-56.28 25.33-56.28 56.29s25.32 56.29 56.28 56.29h288.06v-112.58z" class="color7FD4E3 svgShape"></path><path fill="#647edd" d="M2314.39 2297.83h-204.63c-30.96 0-56.29 25.33-56.29 56.29s25.33 56.29 56.29 56.29h204.63v-12.899h-204.63c-23.84 0-43.39-19.551-43.39-43.391s19.55-43.39 43.39-43.39h204.63v-12.9z" class="color647EDD svgShape"></path><path fill="#ffffff" d="M2300.311 2310.729H2109.76c-23.84 0-43.39 19.551-43.39 43.391s19.55 43.39 43.39 43.39h190.551v-86.781z" class="colorFFF svgShape"></path><path fill="#d0d3d4" d="M2288.59 2330.995h-177.07a2.086 2.086 0 0 1 0-4.17h177.07a2.086 2.086 0 0 1 0 4.17zm-14.84 18.17h-104.4a2.086 2.086 0 0 1 0-4.17h104.4a2.086 2.086 0 0 1 0 4.17zm-8.189 25.8H2116.13a2.086 2.086 0 0 1 0-4.17h149.431a2.086 2.086 0 0 1 0 4.17z" class="colorD0D3D4 svgShape"></path><path fill="#353640" d="M2300.311 2399.595H2109.76a2.086 2.086 0 0 1 0-4.17h188.466v-77.074a2.086 2.086 0 0 1 4.17 0v79.159a2.086 2.086 0 0 1-2.085 2.085zm-216.183 6.68c-.315 0-.637-.071-.938-.224-26.904-13.591-30.688-40.281-30.837-41.411a2.086 2.086 0 0 1 1.797-2.338 2.095 2.095 0 0 1 2.338 1.795c.04.298 3.722 25.673 28.583 38.231a2.088 2.088 0 0 1 .921 2.802 2.088 2.088 0 0 1-1.864 1.145z" class="color353640 svgShape"></path><path fill="#fbcc7c" d="m899.72 606.771 425.13 106.359-141.36 565.05-425.14-106.36z" class="colorFBCC7C svgShape"></path><path fill="#ffffff" d="m843.58 593.9 432.79 68.91-91.58 575.22L752 1169.12z" class="colorFFF svgShape"></path><path fill="#949899" d="M867.55 649.42c7.46 1.19 12.54 8.19 11.351 15.65-1.181 7.45-8.19 12.54-15.641 11.35-7.46-1.19-12.54-8.19-11.35-15.65 1.18-7.45 8.19-12.53 15.64-11.35zm-8.9 55.92c7.449 1.19 12.539 8.2 11.35 15.65-1.189 7.46-8.189 12.54-15.65 11.35-7.45-1.19-12.53-8.19-11.35-15.65 1.189-7.45 8.2-12.53 15.65-11.35zm-8.9 55.931c7.45 1.18 12.53 8.189 11.35 15.64-1.189 7.46-8.199 12.54-15.649 11.35-7.46-1.18-12.54-8.189-11.351-15.64 1.19-7.461 8.19-12.541 15.65-11.35zm-8.91 55.919c7.46 1.189 12.54 8.189 11.35 15.649-1.18 7.45-8.189 12.53-15.649 11.351-7.45-1.19-12.53-8.2-11.34-15.65 1.179-7.46 8.189-12.54 15.639-11.35zm-8.901 55.92c7.45 1.189 12.541 8.189 11.351 15.649-1.19 7.45-8.19 12.54-15.65 11.351-7.45-1.19-12.53-8.19-11.35-15.65 1.19-7.45 8.19-12.54 15.649-11.35zm-8.899 55.92c7.45 1.189 12.53 8.2 11.35 15.649-1.189 7.46-8.2 12.54-15.649 11.351-7.46-1.19-12.54-8.19-11.351-15.65 1.19-7.45 8.19-12.53 15.65-11.35zm-8.91 55.93c7.46 1.18 12.54 8.19 11.351 15.64-1.19 7.46-8.19 12.54-15.65 11.351-7.45-1.18-12.53-8.19-11.35-15.641 1.189-7.46 8.199-12.539 15.649-11.35zm-8.9 55.92c7.449 1.18 12.539 8.19 11.35 15.65-1.19 7.449-8.19 12.529-15.65 11.34-7.449-1.18-12.54-8.19-11.35-15.641 1.19-7.458 8.19-12.539 15.65-11.349zm-8.9 55.92c7.45 1.19 12.53 8.19 11.35 15.65-1.189 7.45-8.199 12.53-15.649 11.35-7.46-1.189-12.54-8.199-11.351-15.649 1.19-7.461 8.19-12.541 15.65-11.351zm111.71-413.6 303.899 48.39S1050.27 716.3 908.04 683.2zm-6.63 41.66 303.899 48.38c.001 0-161.669-15.29-303.899-48.38zm-6.63 41.65 303.899 48.38c.001 0-161.669-15.29-303.899-48.38zm-6.64 41.65 303.91 48.39s-161.67-15.29-303.91-48.39zm-6.63 41.65 303.91 48.391c0-.001-161.68-15.291-303.91-48.391zm-6.63 41.66 303.91 48.38s-161.68-15.29-303.91-48.38zm-6.63 41.65 303.91 48.38s-161.68-15.29-303.91-48.38zm-6.63 41.651 303.899 48.39c.001-.001-161.669-15.291-303.899-48.39zm-6.63 41.649 303.899 48.39c.001 0-161.669-15.29-303.899-48.39zm-6.63 41.66 303.899 48.38c.001 0-161.669-15.29-303.899-48.38zm-6.64 41.649 303.91 48.381s-161.67-15.29-303.91-48.381z" class="color949899 svgShape"></path><path fill="#949899" d="M803.153 849.935a2.084 2.084 0 0 1-2.061-2.413l40.43-253.949a2.083 2.083 0 0 1 2.387-1.731l432.79 68.909a2.084 2.084 0 1 1-.656 4.118l-430.731-68.582-40.102 251.89a2.086 2.086 0 0 1-2.057 1.758z" class="color949899 svgShape"></path><path fill="#647edd" d="M1005.12 1463.49c105.3 47.68 155.49 246.97 201.649 352.729 53.48 108.4 53.91 166.83 3.021 181.41-28.229 3.43-52.75 6.43-70 8.59-87.729 10.971-124.31-143.06-124.31-143.06s-64.58-232.141-72.5-307.08c-7.919-74.93 47.26-96.899 62.14-92.589z" class="color647EDD svgShape"></path><path fill="#f59a8e" d="M1377.62 1823.59s134.79-7.86 167.55-10.1c32.77-2.24 31.37-10.11 52.82-23.25 21.46-13.141 54.77-31.05 62.93-22.931 8.16 8.12-34.311 37.15-34.311 37.15s50.711 11.65 66.36 13.68c15.65 2.021 66.771-11.27 73.681-6.79 6.91 4.48-34.391 35.271-78.041 29.83 0 0 35.451 7.44 67.051 3.53 31.59-3.91 24.17 9.48 3.939 18.73-20.229 9.239-38.63 7.659-38.63 7.659s26.351 5.771 39.351 5.101c13-.66-4.9 18.01-43.4 13.56 0 0 22.08 3.98 26.88 4.9s-19.43 15.83-61.69 8.229c-42.27-7.609-105.5-16.069-105.5-16.069l-196.489 35.5c-.001.001-52.751-41.679-2.501-98.729z" class="colorF59A8E svgShape"></path><path fill="#2a1d19" d="M1639.79 1832.69s43.11 9.01 54.149 8.979c0 .001-27.929 4.48-54.149-8.979zm-.55 23.67c-.21 1.689 37.68 18.29 81.729 14.739.001.001-46.259-4.949-81.729-14.739zm-3.07 21.1c-.18 1.07 35.07 12.67 80.75 12.3l-80.75-12.3z" class="color2A1D19 svgShape"></path><path fill="#647edd" d="m1206.77 1816.22 299.83-11.58s1.141 140.74-3.74 157.801c0 0-177.699 21.17-293.069 35.189-42.83 5.19-118.14-14.189-112.04-88.52 6.089-74.33 109.019-92.89 109.019-92.89z" class="color647EDD svgShape"></path><path fill="#2a1d19" d="M1156.029 1849.305a2.084 2.084 0 0 1-1.687-3.308c17.942-24.745 50.634-31.543 52.018-31.82a2.01 2.01 0 0 1 .329-.039l156.34-6.04c1.142-.088 2.119.852 2.164 2.003a2.085 2.085 0 0 1-2.003 2.163l-156.162 6.033c-2.433.53-32.943 7.576-49.31 30.147a2.082 2.082 0 0 1-1.689.861z" class="color2A1D19 svgShape"></path><path fill="#647edd" d="M751.04 1455.28s-129.75 117.88-168.74 172.71c0 0-38.979 120.62-12.18 288.77 26.81 168.15 80.42 387.47 80.42 387.47h533.69s31.17 4.41-7.721-51.09c-18.05-119.779-62.359-416.029-73.91-514.279-14.619-124.28-97.479-275.37-97.479-275.37s-82.681-24.95-153.53-35.95c-70.84-11.001-100.55 27.739-100.55 27.739z" class="color647EDD svgShape"></path><path fill="#2a1d19" d="M839.334 1527.097c-40.712 0-82.275-43.388-84.239-45.464a2.084 2.084 0 1 1 3.03-2.866c.524.554 52.922 55.245 95.337 42.082a2.085 2.085 0 0 1 1.236 3.982c-5.05 1.567-10.203 2.266-15.364 2.266zm55.569-51.521a2.084 2.084 0 0 1-2.064-2.396c2.572-17.088-17.968-39.745-18.176-39.972a2.085 2.085 0 0 1 3.075-2.817c.903.986 22.09 24.373 19.225 43.409a2.087 2.087 0 0 1-2.06 1.776z" class="color2A1D19 svgShape"></path><path fill="#bd2022" d="M1153.88 2171.94s-10.06 56.97-91.69 83.159c-.001.001 111.83-18.45 91.69-83.159z" class="colorBD2022 svgShape"></path><path fill="#ffffff" d="M1136.517 1985.895a2.086 2.086 0 0 1-2.063-1.799c-.335-2.418-33.656-242.43-43.337-296.86-9.642-54.211-40.75-122.563-41.063-123.247a2.085 2.085 0 0 1 3.792-1.737c.315.689 31.643 69.525 41.376 124.253 9.695 54.509 43.026 294.6 43.362 297.019a2.086 2.086 0 0 1-2.067 2.371z" class="colorFFF svgShape"></path><path fill="#353640" d="M1041.14 1650.85c1.69 2.03-65.859 102.761-210.79 129.16 0 0 144.99-9.14 210.79-129.16zm7.32 93.82s7.92 96.87-104.18 138.3c1.92 2.72 111.409-17.13 104.18-138.3z" class="color353640 svgShape"></path><path fill="#f59a8e" d="m744.95 1364.51 6.09 90.771s58.49 68.24 102.35 56.05c43.87-12.18 19.8-65.79 19.8-65.79l-31.369-86.21c-.001-.001-53.001-51.791-96.871 5.179z" class="colorF59A8E svgShape"></path><path fill="#2a1d19" d="m744.95 1364.51 2.2 32.82c5.59 6.149 9.41 7.8 9.41 7.8 47.02 24.43 83.8 31.1 111.619 26.641l-26.359-72.44c0-.001-53-51.791-96.87 5.179zm-47.85-133.3s189.471-3.66 219.32-79.2c29.86-75.55-68.23-148.04-133.42-79.81 0 0-192.52 32.29-137.68 138.3 0 0-57.65 77.06 59.51 151.85 0 0 45.27 26.04-7.73-131.14z" class="color2A1D19 svgShape"></path><path fill="#f59a8e" d="M882.92 1157.49s17.66 86.51 28.63 151.7c10.97 65.18-30.46 144.989-171.8 92.6 0 0-37.78-10.96-64.58-123.061-26.81-112.099 188.86-220.539 207.75-121.239z" class="colorF59A8E svgShape"></path><path fill="#2a1d19" d="M697.1 1231.21s189.471-3.66 219.32-79.2c24.24-162.66-425.939-36.85-211.59 210.34 0 0 45.27 26.04-7.73-131.14z" class="color2A1D19 svgShape"></path><path fill="#f59a8e" d="M740.97 1316.91c-115.22-54.94-88.16 81.2-5.489 51.02-.001 0 20.719-18.29 5.489-51.02z" class="colorF59A8E svgShape"></path><path fill="#2a1d19" d="M868.889 1314.25c-5.89 0-11.546-.851-13.421-1.163a2.084 2.084 0 0 1-1.714-2.398 2.08 2.08 0 0 1 2.398-1.715c8.433 1.4 21.612 1.855 24.514-1.517.398-.463.789-1.199.271-2.792-3.822-11.765-35.059-57.185-35.374-57.643a2.085 2.085 0 1 1 3.435-2.365c1.3 1.888 31.898 46.382 35.905 58.719 1.083 3.329.012 5.536-1.077 6.801-2.752 3.198-8.965 4.073-14.937 4.073z" class="color2A1D19 svgShape"></path><path fill="#ffffff" d="M830.8 1318.66c5.86 1.89 21.11 7.67 36.521 6.71 15.399-.95 19.76 30.31-16.03 29-35.791-1.31-35.551-42.32-20.491-35.71z" class="colorFFF svgShape"></path><path fill="#2a1d19" d="M701.074 1344.952c-.62 0-1.234-.275-1.645-.801a2.08 2.08 0 0 1 .353-2.919c.287-.225 5.692-4.382 15.103-5.605-21.074-8.43-32.6.81-32.739.926a2.086 2.086 0 0 1-2.669-3.205c.795-.664 19.889-15.98 53.4 7.504a2.086 2.086 0 0 1-2.393 3.415 89.375 89.375 0 0 0-7.422-4.695c-12.915-.976-20.631 4.881-20.708 4.941a2.081 2.081 0 0 1-1.28.439zm162.656-114.931s28.76-3.551 32.279-6.19c3.521-2.64-14.149-10.72-26.79-8.13-12.639 2.589-13.099 16.15-5.489 14.32zm-83.46 25.739s48.891-13.859 51.181-17.52c2.28-3.65-3.351-12.03-19.65-7.92-16.301 4.12-39.301 27.88-31.531 25.44zm36.09 3.969c3.079-.729 6.189 1.19 6.92 4.261l2.84 11.96c.729 3.08-1.19 6.189-4.26 6.92-3.08.729-6.19-1.19-6.921-4.271l-2.84-11.949c-.729-3.08 1.191-6.19 4.261-6.921zm62.71-16.919c2.75-.649 5.529 1.07 6.18 3.811l2.53 10.689c.659 2.74-1.061 5.521-3.8 6.171l-.011.01c-2.739.649-5.52-1.07-6.18-3.811l-2.53-10.689c-.649-2.741 1.061-5.521 3.811-6.181z" class="color2A1D19 svgShape"></path><path fill="#ffe072" d="m1563.3 1711.31 117.79 207.76-983.41 557.52-117.79-207.77z" class="colorFFE072 svgShape"></path><path fill="#ff845e" d="M1815.641 1705.53s-6.41-12.96-27.99-13.311c-21.58-.35-224.351 19.09-224.351 19.09l58.9 103.881 58.89 103.88s120.811-164 131.59-182.7c10.78-18.69 2.961-30.84 2.961-30.84z" class="colorFF845E svgShape"></path><path fill="#2a1d19" d="M1815.641 1705.53s-6.41-12.96-27.99-13.311c-5.42-.08-22.301 1.08-44.521 2.87 4.55 13.561 10.7 27.42 18.44 41.09 7.75 13.66 16.49 26.05 25.789 36.92 12.94-18.14 22.61-32.029 25.32-36.729 10.781-18.69 2.961-30.84 2.962-30.84z" class="color2A1D19 svgShape"></path><path fill="#949899" d="m579.89 2268.82 117.79 207.77-68.39 38.771c-37.62 21.32-85.84 7.99-107.16-29.62l-40.24-70.98c-21.329-37.62-8-85.84 29.61-107.159l68.39-38.782z" class="color949899 svgShape"></path><path fill="#2a1d19" d="M697.682 2478.675c-.727 0-1.432-.38-1.816-1.057l-116.758-205.949-72.283 41.302a2.086 2.086 0 0 1-2.069-3.621l74.1-42.34a2.087 2.087 0 0 1 2.848.782l117.79 207.77a2.085 2.085 0 0 1-1.812 3.113z" class="color2A1D19 svgShape"></path><path fill="#ffffff" d="M536.72 2479.18s31.98 32.2 80.511 27c-.001 0-43.111-4.92-80.511-27z" class="colorFFF svgShape"></path><path fill="#2a1d19" d="m579.89 2268.82 24.24-13.74 93.55 221.51z" class="color2A1D19 svgShape"></path><path fill="#ffffff" d="M680.142 2267.035a2.084 2.084 0 0 1-1.03-3.899l905.98-513.391a2.086 2.086 0 0 1 2.843.785 2.086 2.086 0 0 1-.786 2.842l-905.981 513.391a2.067 2.067 0 0 1-1.026.272zm174.32-50.551a2.084 2.084 0 0 1-1.03-3.899l576.55-326.85a2.084 2.084 0 1 1 2.056 3.627l-576.55 326.85a2.064 2.064 0 0 1-1.026.272z" class="colorFFF svgShape"></path><path fill="#2a1d19" d="M697.682 2478.675a2.085 2.085 0 0 1-1.03-3.899l983.41-557.52a2.085 2.085 0 1 1 2.057 3.627l-983.41 557.52a2.074 2.074 0 0 1-1.027.272z" class="color2A1D19 svgShape"></path><path fill="#ffffff" d="M1437.902 1972.205a2.084 2.084 0 0 1-1.03-3.899l162.229-91.97a2.084 2.084 0 1 1 2.057 3.627l-162.229 91.97a2.07 2.07 0 0 1-1.027.272zm-771 380.1a2.084 2.084 0 0 1-1.03-3.899l162.229-91.97a2.084 2.084 0 1 1 2.056 3.627l-162.229 91.97a2.064 2.064 0 0 1-1.026.272z" class="colorFFF svgShape"></path><path fill="#f59a8e" d="M930.82 2067.24s131.85-29.09 163.84-36.48c32-7.399 29.37-14.95 48.479-31.319 19.11-16.36 49.16-39.32 58.511-32.601 9.34 6.73-28.011 42.12-28.011 42.12s51.921 3.48 67.69 3c15.77-.479 64.15-21.689 71.68-18.359 7.54 3.329-28.38 40.27-72.34 41.8 0 0 36.181 1.739 66.76-7.12 30.58-8.86 25.37 5.54 6.86 17.87-18.51 12.319-36.93 13.68-36.93 13.68s26.93 1.53 39.66-1.19c12.729-2.72-1.99 18.561-40.71 20.25 0 0 22.43.44 27.319.591 4.88.14-16.68 18.71-59.609 17.88-42.94-.82-106.71.83-106.71.83l-188.41 66.14c.001-.002-58.669-32.802-18.079-97.092z" class="colorF59A8E svgShape"></path><path fill="#2a1d19" d="M1191.12 2034.74s44 2.08 54.89.3c0 0-26.86 8.84-54.89-.3zm3.21 23.46c.06 1.71 40.1 12.1 83.03 1.63 0 0-46.46 2.42-83.03-1.63zm.3 21.321c0 1.09 36.64 6.959 81.681-.631l-81.681.631z" class="color2A1D19 svgShape"></path><path fill="#647edd" d="M666.58 2274.851c.95-.16 1.89-.301 2.85-.48 123.07-23.15 450.84-124.28 450.84-124.28l-37.17-143.78-360.67 75.621s-113.3 20.92-125.479 95.859c-11.821 72.669 38.529 101.249 69.629 97.06z" class="color647EDD svgShape"></path><path fill="#2a1d19" d="M722.428 2084.015a2.086 2.086 0 0 1-.426-4.126l264.301-55.409a2.085 2.085 0 0 1 .855 4.082l-264.301 55.409c-.144.03-.288.044-.429.044zm-6.16 182.321a2.086 2.086 0 0 1-.523-4.105c2.934-.762 293.047-76.187 402.022-113.487l-36.296-140.401-26.25-.855c.704 13.168 6.147 82.421 43.973 134.294a2.085 2.085 0 1 1-3.369 2.457c-42.543-58.342-44.851-138.062-44.87-138.86a2.085 2.085 0 0 1 2.152-2.132l30.06.979c.925.03 1.719.666 1.951 1.563l37.17 143.78a2.084 2.084 0 0 1-1.339 2.492c-107.671 37.128-401.204 113.441-404.156 114.208a2.16 2.16 0 0 1-.525.067z" class="color2A1D19 svgShape"></path><path fill="#647edd" d="M582.3 1627.99s-44.46 63.95-48.11 205.29v266.85c0 59.7 12.181 197.391 135.24 174.24 52.57-15.53 59.631-82.68 53-192.439 0 0-5.47-132.891-15.22-299.82S608.65 1595.81 582.3 1627.99z" class="color647EDD svgShape"></path><path fill="#2a1d19" d="M655.809 2123.775a2.086 2.086 0 0 1-1.753-3.211c22.973-35.794 57.165-40.138 66.185-40.652l-14.483-286.757a2.085 2.085 0 0 1 4.166-.211l14.59 288.881a2.09 2.09 0 0 1-.59 1.562c-.406.415-.966.661-1.547.628-.409-.022-39.594-.486-64.81 38.802-.4.621-1.072.958-1.758.958zM633.36 1619.61s42.18 11.649 60.359 81.55c.001 0-20.819-48.09-60.359-81.55z" class="color2A1D19 svgShape"></path><path fill="#f7607e" d="M1053.61 1319.979h89.37v119.371h-89.37z" class="colorF7607E svgShape"></path><path fill="#949899" d="m1035.79 1354.74 51.48-51.49 8.84 8.84-51.48 51.49z" class="color949899 svgShape"></path><path fill="#ffe072" d="M1186.73 1408.729h89.38V1528.1h-89.38z" class="colorFFE072 svgShape"></path><path fill="#949899" d="m1168.91 1443.49 51.49-51.49 8.84 8.84-51.49 51.49z" class="color949899 svgShape"></path></svg>