<?xml version="1.0" standalone="no"?>
<svg xmlns="http://www.w3.org/2000/svg" xmlns:xlink="http://www.w3.org/1999/xlink" height="1080px" width="1920px">
  <defs>
    <pattern id="doodad" width="35.8" height="31" viewBox="0 0 34.64101615137755 30" patternUnits="userSpaceOnUse" patternTransform="rotate(43)">
      <rect width="100%" height="100%" fill="rgba(255, 245, 245,0)"/>
      <path d="M-20-20h200v200h-200M33.77 25.5L25.98 21L18.19 25.5L18.19 34.5L25.98 39L33.77 34.5zM16.45 25.5L8.66 21L0.87 25.5L0.87 34.5L8.66 39L16.45 34.5zM7.79 10.5L0 6L-7.79 10.5L-7.79 19.5L0 24L7.79 19.5zM16.45-4.5L8.66-9L0.87-4.5L0.87 4.5L8.66 9L16.45 4.5zM33.77-4.5L25.98-9L18.19-4.5L18.19 4.5L25.98 9L33.77 4.5zM42.43 10.5L34.64 6L26.85 10.5L26.85 19.5L34.64 24L42.43 19.5zM25.11 10.5L17.32 6L9.53 10.5L9.53 19.5L17.32 24L25.11 19.5z" fill="rgba(27, 38, 59,1)"/>
      <path d="M-20-20h200v200h-200M26.21 25.25L17.98 20.5L9.75 25.25L9.75 34.75L17.98 39.5L26.21 34.75zM8.89 25.25L0.66 20.5L-7.57 25.25L-7.57 34.75L0.66 39.5L8.89 34.75zM0.23 10.25L-8 5.5L-16.23 10.25L-16.23 19.75L-8 24.5L0.23 19.75zM8.89-4.75L0.66-9.5L-7.57-4.75L-7.57 4.75L0.66 9.5L8.89 4.75zM26.21-4.75L17.98-9.5L9.75-4.75L9.75 4.75L17.98 9.5L26.21 4.75zM34.87 10.25L26.64 5.5L18.41 10.25L18.41 19.75L26.64 24.5L34.87 19.75zM43.53 25.25L35.3 20.5L27.07 25.25L27.07 34.75L35.3 39.5L43.53 34.75zM17.55 40.25L9.32 35.5L1.09 40.25L1.09 49.75L9.32 54.5L17.55 49.75zM-8.43 25.25L-16.66 20.5L-24.89 25.25L-24.89 34.75L-16.66 39.5L-8.43 34.75zM-8.43-4.75L-16.66-9.5L-24.89-4.75L-24.89 4.75L-16.66 9.5L-8.43 4.75zM17.55-19.75L9.32-24.5L1.09-19.75L1.09-10.25L9.32-5.5L17.55-10.25zM43.53-4.75L35.3-9.5L27.07-4.75L27.07 4.75L35.3 9.5L43.53 4.75zM34.87 40.25L26.64 35.5L18.41 40.25L18.41 49.75L26.64 54.5L34.87 49.75zM0.23 40.25L-8 35.5L-16.23 40.25L-16.23 49.75L-8 54.5L0.23 49.75zM-17.09 10.25L-25.32 5.5L-33.55 10.25L-33.55 19.75L-25.32 24.5L-17.09 19.75zM0.23-19.75L-8-24.5L-16.23-19.75L-16.23-10.25L-8-5.5L0.23-10.25zM34.87-19.75L26.64-24.5L18.41-19.75L18.41-10.25L26.64-5.5L34.87-10.25zM52.19 10.25L43.96 5.5L35.73 10.25L35.73 19.75L43.96 24.5L52.19 19.75zM17.55 10.25L9.32 5.5L1.09 10.25L1.09 19.75L9.32 24.5L17.55 19.75z" fill="rgba(236, 201, 75,1)"/>
    </pattern>
  </defs>
  <rect fill="url(#doodad)" height="200%" width="200%"/>
</svg>
