<?xml version="1.0" encoding="utf-8"?>
<svg xmlns="http://www.w3.org/2000/svg" xmlns:xlink="http://www.w3.org/1999/xlink" version= "1.1" width="1080px" height="2252px" viewBox="0 0 1080 2252">
<rect x="0" y="0" width="1080" height="2252" fill="rgb(255,255,255)"/>
<g id="layer1">
<g style="fill:rgb(0,135,255); fill-opacity:1.0; stroke-linejoin: miter">
<path d="M-651.86346,-383.44305L548.6809,-383.44205L1749.2252,-383.44098L1749.2252,1296.1084Q548.6809,1296.1094,-651.86346,1296.1104Q-651.86346,456.33356,-651.86346,-383.44305"/>
</g>
<g style="fill:rgb(0,0,0); fill-opacity:1.0; stroke-linejoin: miter">
<path d="M273.7938,193.83722L273.7938,193.83722L818.9023,193.83798C826.0728,193.83798,831.88556,199.65071,831.88556,206.82108L831.88556,206.82108L831.88556,576.74896C831.88556,583.9195,826.0728,589.7323,818.9023,589.7323L818.9023,589.7323L273.7938,589.7329C270.3504,589.7329,267.0481,588.3652,264.61322,585.9303C262.1784,583.4954,260.81055,580.19305,260.81055,576.74963L260.81055,576.74963L260.81055,206.82042C260.81055,203.37703,262.1784,200.07468,264.61322,197.63983C267.0481,195.20503,270.3504,193.83722,273.7938,193.83722L273.7938,193.83722 M273.79373,219.80356L286.77704,206.82042L286.77704,576.74963L273.79373,563.76654L818.9023,563.76575L805.9192,576.74896L805.9192,206.82108L818.9023,219.80426L273.79373,219.80356 Z"/>
</g>
<g style="fill:rgb(0,0,0); fill-opacity:1.0; stroke-linejoin: miter">
<path d="M239.84914,579.7168L239.84914,579.7168L851.639,579.7175C858.8095,579.7175,864.6222,585.5304,864.6222,592.70074L864.6222,592.70074L864.6222,609.29987C864.6222,616.47003,858.8095,622.28296,851.639,622.28296L851.639,622.28296L239.8492,622.284C236.40578,622.284,233.10344,620.91626,230.66862,618.48145C228.23378,616.04663,226.86592,612.7441,226.86592,609.3009L226.86592,609.3009L226.86589,592.7C226.86589,589.2568,228.23375,585.9542,230.66856,583.5195C233.10344,581.08466,236.40575,579.7168,239.84914,579.7168L239.84914,579.7168 M239.84914,605.6833L252.83238,592.7L252.83238,609.3009L239.84914,596.3176L851.639,596.3166L838.65564,609.29987L838.65564,592.70074L851.639,605.6839L239.84914,605.6833 Z"/>
</g>
<g style="fill:rgb(254,255,195); fill-opacity:1.0; stroke-linejoin: miter">
<path d="M372.9218,94.175095L549.00323,94.17545L725.0846,94.17574Q725.0846,320.8752,725.0846,547.5746Q549.00323,547.57495,372.9218,547.57526Q372.9218,320.8752,372.9218,94.175095"/>
</g>
<g style="fill:rgb(255,176,114); fill-opacity:1.0; stroke-linejoin: miter">
<path d="M407.55957,114.36262L407.55957,114.36262C407.55957,122.24211,401.17197,128.62978,393.29245,128.62978L393.29245,128.62978C385.4128,128.62978,379.0251,122.24198,379.0251,114.36262L379.0251,114.36262C379.0251,106.482994,385.4128,100.095314,393.29245,100.095314L393.29245,100.095314C401.17197,100.095314,407.55957,106.482994,407.55957,114.36262L407.55957,114.36262 M388.01288,114.36262L388.01288,114.36262C388.01288,117.2783,390.37665,119.64199,393.29245,119.64199L393.29245,119.64199C396.20822,119.64199,398.5719,117.2783,398.5719,114.36262L398.5719,114.36262C398.5719,111.446686,396.20813,109.083115,393.29245,109.083115L393.29245,109.083115C390.37665,109.083115,388.01288,111.446686,388.01288,114.36262 Z"/>
</g>
<g style="fill:rgb(255,176,114); fill-opacity:1.0; stroke-linejoin: miter">
<path d="M393.2925,106.44244C388.91843,106.44244,385.37213,109.98782,385.37213,114.36266C385.37213,118.73691,388.91843,122.28267,393.2925,122.28267C397.66647,122.28267,401.2127,118.73691,401.2127,114.36266C401.2127,109.98782,397.66647,106.44244,393.2925,106.44244 Z"/>
</g>
<g style="fill:rgb(153,255,173); fill-opacity:1.0; stroke-linejoin: miter">
<path d="M445.72363,188.15224L445.72363,188.15224L460.72192,188.15259C468.9474,188.15277,475.61523,194.82085,475.61523,203.04628L475.61523,203.04628L475.61523,220.1555C475.61523,228.38094,468.9474,235.04895,460.72192,235.04918L460.72192,235.04918L445.72363,235.04959C441.77344,235.04959,437.98517,233.48058,435.1919,230.68741C432.39877,227.89423,430.82953,224.10605,430.82953,220.15582L430.82953,220.15582L430.82953,203.04587C430.82953,199.09581,432.39877,195.30748,435.1919,192.5143C437.98517,189.7213,441.77344,188.15213,445.72363,188.15224L445.72363,188.15224 M445.72284,217.93958L460.617,203.04587L460.617,220.15582L445.72284,205.26215L460.72113,205.2618L445.82776,220.1555L445.82776,203.04628L460.72113,217.93993L445.72284,217.93958 Z"/>
</g>
<g style="fill:rgb(153,255,173); fill-opacity:1.0; stroke-linejoin: miter">
<path d="M444.9486,256.83246L444.9486,256.83246L459.94696,256.8327C468.17236,256.83295,474.8402,263.50113,474.8402,271.72644L474.8402,271.72644L474.8402,288.83572C474.8402,297.06125,468.17236,303.72922,459.94696,303.72928L459.94696,303.72928L444.9486,303.72977C440.99854,303.7299,437.21014,302.1608,434.417,299.36765C431.62375,296.5746,430.0545,292.78625,430.0545,288.83603L430.0545,288.83603L430.0545,271.7262C430.0545,267.7762,431.62375,263.9878,434.417,261.19446C437.21014,258.40146,440.99854,256.83246,444.9486,256.83246L444.9486,256.83246 M444.94788,286.61978L459.84198,271.7262L459.84198,288.83603L444.94788,273.94232L459.94617,273.9421L445.0528,288.83572L445.0528,271.72644L459.94617,286.62018L444.94788,286.61978 Z"/>
</g>
<g style="fill:rgb(0,209,42); fill-opacity:1.0; stroke-linejoin: miter">
<path d="M444.6438,325.655L444.6438,325.655L459.64215,325.65536C467.8675,325.6555,474.5354,332.32367,474.5354,340.54895L474.5354,340.54895L474.5354,357.6584C474.5354,365.88382,467.8675,372.5516,459.64215,372.55197L459.64215,372.55197L444.6438,372.55237C440.69373,372.55237,436.90533,370.98337,434.11215,368.1901C431.3189,365.39703,429.7497,361.60883,429.7497,357.65863L429.7497,357.65863L429.7497,340.54858C429.7497,336.59863,431.3189,332.8103,434.11215,330.01703C436.90533,327.22397,440.69373,325.655,444.6438,325.655L444.6438,325.655 M444.64313,355.44235L459.53717,340.54858L459.53717,357.65863L444.64313,342.76486L459.64136,342.76456L444.74792,357.6584L444.74792,340.54895L459.64136,355.4427L444.64313,355.44235 Z"/>
</g>
<g style="fill:rgb(153,255,173); fill-opacity:1.0; stroke-linejoin: miter">
<path d="M444.9417,398.8901L444.9417,398.8901L459.93994,398.89035C468.1654,398.8906,474.8333,405.55878,474.8333,413.7841L474.8333,413.7841L474.8333,430.8934C474.8333,439.1188,468.1654,445.78674,459.93994,445.787L459.93994,445.787L444.9417,445.78748C440.99158,445.78748,437.2032,444.21848,434.41003,441.4252C431.6168,438.63214,430.04758,434.84378,430.04758,430.89377L430.04758,430.89377L430.04758,413.7837C430.04758,409.83365,431.6168,406.04544,434.41003,403.25217C437.2032,400.4591,440.99158,398.8901,444.9417,398.8901L444.9417,398.8901 M444.94098,428.6774L459.83508,413.7837L459.83508,430.89377L444.94098,415.99997L459.93927,415.99948L445.04584,430.8934L445.04584,413.7841L459.93927,428.6778L444.94098,428.6774 Z"/>
</g>
<g style="fill:rgb(153,255,173); fill-opacity:1.0; stroke-linejoin: miter">
<path d="M443.80865,461.25732L443.80865,461.25732L458.807,461.25766C467.03235,461.2579,473.70026,467.92593,473.70026,476.1514L473.70026,476.1514L473.70026,493.26077C473.70026,501.48608,467.03235,508.15402,458.807,508.1544L458.807,508.1544L443.80865,508.15475C439.85858,508.15475,436.0702,506.58572,433.27704,503.79245C430.48376,500.99945,428.91455,497.21106,428.91455,493.26096L428.91455,493.26096L428.91455,476.15094C428.91455,472.20093,430.48376,468.4126,433.27704,465.61945C436.0702,462.8264,439.85858,461.25732,443.80865,461.25732L443.80865,461.25732 M443.80798,491.04468L458.7021,476.15094L458.7021,493.26096L443.80798,478.36725L458.8062,478.3668L443.91278,493.26077L443.91278,476.1514L458.8062,491.0451L443.80798,491.04468 Z"/>
</g>
<g style="fill:rgb(153,255,173); fill-opacity:1.0; stroke-linejoin: miter">
<path d="M503.08777,207.0699L503.08777,207.0699L649.2925,207.06993L653.70966,207.06993L653.70966,215.90439L649.2925,215.90439L503.08777,215.90439L498.67047,215.90439L498.67047,207.0699 Z"/>
</g>
<g style="fill:rgb(153,255,173); fill-opacity:1.0; stroke-linejoin: miter">
<path d="M501.20624,278.4607L501.20624,278.4607L647.41095,278.4607L651.82825,278.4607L651.82825,287.2952L647.41095,287.2952L501.20624,287.2952L496.789,287.2952L496.789,278.4607 Z"/>
</g>
<g style="fill:rgb(0,209,42); fill-opacity:1.0; stroke-linejoin: miter">
<path d="M502.2221,348.07294L502.2221,348.07294L648.4269,348.07294L652.8441,348.07294L652.8441,356.90732L648.4269,356.90732L502.2221,356.90732L497.80487,356.90732L497.80487,348.07294 Z"/>
</g>
<g style="fill:rgb(153,255,173); fill-opacity:1.0; stroke-linejoin: miter">
<path d="M503.05048,418.19238L503.05048,418.19238L649.25525,418.19238L653.6725,418.19238L653.6725,427.0268L649.25525,427.0268L503.05048,427.0268L498.6333,427.0268L498.6333,418.19238 Z"/>
</g>
<g style="fill:rgb(153,255,173); fill-opacity:1.0; stroke-linejoin: miter">
<path d="M503.70306,483.60605L503.70306,483.60605L649.9079,483.60605L654.3251,483.60605L654.3251,492.44055L649.9079,492.44055L503.70306,492.44055L499.28577,492.44055L499.28577,483.60605 Z"/>
</g>
<g style="fill:rgb(255,255,255); fill-opacity:1.0; stroke-linejoin: miter">
<path d="M443.56738,350.09967L443.56738,350.09967L452.4666,356.0206L446.25763,357.3832L460.4295,334.35278L462.7444,330.59088L470.26855,335.22076L467.95355,338.98276L453.7818,362.01315L451.38324,365.91095L447.57288,363.37576L438.6737,357.4548L434.9961,355.008L439.88977,347.6528 Z"/>
</g>
<g style="fill:rgb(255,176,114); fill-opacity:1.0; stroke-linejoin: miter">
<path d="M445.5998,115.234695L445.5998,115.234695C445.5998,123.11427,439.2121,129.50186,431.3326,129.50186L431.3326,129.50186C423.45297,129.50186,417.06537,123.1142,417.06537,115.23469L417.06537,115.23469C417.06537,107.35508,423.45297,100.96752,431.3326,100.96752L431.3326,100.96752C439.2121,100.96752,445.5998,107.35509,445.5998,115.234695L445.5998,115.234695 M426.05304,115.23469L426.05304,115.23469C426.05304,118.15038,428.4168,120.51412,431.3326,120.51412L431.3326,120.51412C434.24835,120.51412,436.61206,118.15038,436.61206,115.23469L436.61206,115.23469C436.61206,112.31889,434.24835,109.9552,431.3326,109.9552L431.3326,109.9552C428.4168,109.9552,426.05304,112.31889,426.05304,115.23469 Z"/>
</g>
<g style="fill:rgb(255,176,114); fill-opacity:1.0; stroke-linejoin: miter">
<path d="M431.33267,107.89612C427.27985,107.89612,423.99402,111.18116,423.99402,115.23469C423.99402,119.28762,427.27985,122.57327,431.33267,122.57327C435.38538,122.57327,438.6712,119.28762,438.6712,115.23469C438.6712,111.18116,435.38538,107.89612,431.33267,107.89612 Z"/>
</g>
<g style="fill:rgb(255,176,114); fill-opacity:1.0; stroke-linejoin: miter">
<path d="M483.65503,113.942856L483.65503,113.942856C483.65503,121.82236,477.26733,128.20998,469.38788,128.20998L469.38788,128.20998C461.5083,128.20998,455.12054,121.822296,455.12054,113.942856L455.12054,113.942856C455.12054,106.06319,461.5083,99.67562,469.38788,99.67562L469.38788,99.67562C477.26733,99.67562,483.65503,106.06319,483.65503,113.942856L483.65503,113.942856 M464.10834,113.942856L464.10834,113.942856C464.10834,116.8585,466.47205,119.22223,469.38788,119.22223L469.38788,119.22223C472.3036,119.22223,474.6673,116.8585,474.6673,113.942856L474.6673,113.942856C474.6673,111.02699,472.3036,108.66331,469.38788,108.66331L469.38788,108.66331C466.47205,108.66331,464.10834,111.02699,464.10834,113.942856 Z"/>
</g>
<g style="fill:rgb(255,176,114); fill-opacity:1.0; stroke-linejoin: miter">
<path d="M469.38788,106.08529C465.0484,106.08529,461.53015,109.602715,461.53015,113.94303C461.53015,118.282524,465.0484,121.80054,469.38788,121.80054C473.72723,121.80054,477.24548,118.282524,477.24548,113.94303C477.24548,109.602715,473.72723,106.08529,469.38788,106.08529 Z"/>
</g>
</g>
<g id="layer2" opacity="0.0">
<g style="fill:rgb(0,0,0); fill-opacity:1.0; stroke-linejoin: miter">
<path d="M-161.04869,662.74915L509.7758,662.75L1180.6002,662.75085Q1180.6003,1110.3221,1180.6005,1557.8934Q509.7761,1557.8949,-161.04837,1557.8962Q-161.04855,1110.3226,-161.04869,662.74915"/>
</g>
</g>
<g id="layer3" opacity="0.0">
<g style="fill:rgb(0,183,37); fill-opacity:1.0; stroke-linejoin: miter">
<path d="M-651.86346,-383.443L548.6809,-383.442L1749.2252,-383.44092L1749.2252,1296.1084Q548.6809,1296.1094,-651.86346,1296.1104Q-651.86346,456.33362,-651.86346,-383.443"/>
</g>
<g style="fill:rgb(0,0,0); fill-opacity:1.0; stroke-linejoin: miter">
<path d="M297.55862,84.733795L297.55862,84.733795L804.77124,84.73485C811.44324,84.73487,816.85187,90.14354,816.85187,96.815475L816.85187,96.815475L816.85187,441.02444C816.85187,447.69638,811.44324,453.10507,804.77124,453.10507L804.77124,453.10507L297.55862,453.10638C294.35464,453.10638,291.2819,451.83362,289.01633,449.56805C286.75076,447.30252,285.47794,444.22974,285.47794,441.02576L285.47794,441.02576L285.47794,96.814415C285.47794,93.61043,286.75076,90.537674,289.01633,88.27212C291.2819,86.00656,294.35464,84.73379,297.55862,84.733795L297.55862,84.733795 M297.55856,108.89502L309.63925,96.814415L309.63925,441.02576L297.55856,428.9451L804.77124,428.9438L792.6907,441.0245L792.6907,96.81548L804.77124,108.89609L297.55856,108.89502 Z"/>
</g>
<g style="fill:rgb(0,0,0); fill-opacity:1.0; stroke-linejoin: miter">
<path d="M335.8025,473.23184L335.8025,473.23184L758.23175,473.23273C764.9037,473.23276,770.3124,478.64142,770.3124,485.31332L770.3124,485.31332L770.3124,603.2502C770.3124,609.9222,764.9037,615.3308,758.23175,615.3308L758.23175,615.3308L335.8025,615.3322C332.5985,615.3322,329.52576,614.0594,327.2602,611.7939C324.99463,609.5284,323.7218,606.4556,323.7218,603.2516L323.7218,603.2516L323.7218,485.3125C323.7218,482.10852,324.99463,479.03574,327.2602,476.77017C329.52576,474.50464,332.5985,473.23184,335.8025,473.23184L335.8025,473.23184 M335.80243,497.3932L347.88312,485.3125L347.88312,603.2516L335.80243,591.171L758.23175,591.1696L746.1511,603.2502L746.1511,485.31332L758.23175,497.39392L335.80243,497.3932 Z"/>
</g>
<g style="fill:rgb(231,183,255); fill-opacity:1.0; stroke-linejoin: miter">
<path d="M381.0488,514.35864L381.0488,514.35864L435.62512,514.3597L446.6167,514.35986L446.6163,536.343L435.62473,536.34283L381.0484,536.3418L370.05682,536.3416L370.05722,514.35846 Z"/>
</g>
<g style="fill:rgb(231,183,255); fill-opacity:1.0; stroke-linejoin: miter">
<path d="M472.29803,512.72125L472.29803,512.72125L580.2799,512.7223L591.2715,512.7224L591.27124,534.7055L580.27966,534.7054L472.29785,534.7044L461.30627,534.7043L461.30646,512.7211 Z"/>
</g>
<g style="fill:rgb(231,183,255); fill-opacity:1.0; stroke-linejoin: miter">
<path d="M621.6004,511.82465L621.6004,511.82465L646.3255,511.82562L657.3171,511.82605L657.31616,533.8092L646.3246,533.8088L621.5995,533.8078L610.6079,533.8073L610.6088,511.82416 Z"/>
</g>
<g style="fill:rgb(231,183,255); fill-opacity:1.0; stroke-linejoin: miter">
<path d="M687.1879,512.0636L687.1879,512.0636L727.50635,512.0635L738.4979,512.0635L738.4979,534.04663L727.50635,534.04663L687.1879,534.04675L676.19635,534.04675L676.19635,512.0636 Z"/>
</g>
<g style="fill:rgb(231,183,255); fill-opacity:1.0; stroke-linejoin: miter">
<path d="M386.59982,558.3229L386.59982,558.3229L408.61514,558.92773L419.60254,559.2296L418.99878,581.2045L408.01138,580.90265L385.99603,580.2977L375.00867,579.9959L375.61243,558.021 Z"/>
</g>
<g style="fill:rgb(231,183,255); fill-opacity:1.0; stroke-linejoin: miter">
<path d="M437.50397,556.9347L437.50397,556.9347L500.81088,556.31305L511.8019,556.20514L512.0177,578.1872L501.0267,578.2951L437.7198,578.91675L426.72876,579.0247L426.51294,557.0426 Z"/>
</g>
<g style="fill:rgb(231,183,255); fill-opacity:1.0; stroke-linejoin: miter">
<path d="M538.3345,558.982L538.3345,558.982L593.8358,558.983L604.8274,558.98315L604.82697,580.9662L593.83545,580.966L538.3341,580.9651L527.3425,580.9649L527.34296,558.9818 Z"/>
</g>
<g style="fill:rgb(231,183,255); fill-opacity:1.0; stroke-linejoin: miter">
<path d="M625.14526,558.0975L625.14526,558.0975L692.29047,558.09845L703.28204,558.09863L703.2816,580.08167L692.29004,580.0815L625.14484,580.0805L614.15326,580.0803L614.1537,558.0973 Z"/>
</g>
<g style="fill:rgb(254,255,195); fill-opacity:1.0; stroke-linejoin: miter">
<path d="M309.63925,108.59386C309.5594,108.59386,309.48276,108.62558,309.42627,108.68207C309.3698,108.73857,309.33804,108.815186,309.33804,108.895065L309.33804,428.94507C309.33804,429.11142,309.4729,429.24628,309.63925,429.24628L792.6907,429.24615C792.7706,429.24615,792.8472,429.21442,792.90375,429.15793C792.9602,429.10147,792.9919,429.02484,792.9919,428.94495L792.9919,428.94388L792.9919,108.89714L792.9919,108.89607C792.9919,108.729706,792.85706,108.59485,792.6907,108.59485L309.63925,108.59386 Z"/>
</g>
<g style="fill:rgb(255,150,131); fill-opacity:1.0; stroke-linejoin: miter">
<path d="M452.8898,195.54482L452.3481,203.59656Q448.49707,227.92957,429.81168,242.51862Q410.99698,257.09586,385.50046,254.34067Q361.16745,250.4896,346.57843,231.80423Q341.904,225.76427,338.87778,218.64168L336.33432,211.31908Q334.23828,203.76122,334.21472,195.54485Q334.85104,170.33017,351.59427,153.5869Q368.3375,136.84363,393.55228,136.20735Q418.76697,136.84363,435.51025,153.58688Q452.25348,170.33014,452.8898,195.54482"/>
</g>
<g style="fill:rgb(255,255,255); fill-opacity:1.0; stroke-linejoin: miter">
<path d="M416.6288,164.27002L416.42322,167.32607Q414.96158,176.56165,407.86954,182.09892Q400.7284,187.63168,391.05124,186.58597Q381.8156,185.1243,376.2784,178.03226Q374.5042,175.7398,373.3556,173.03642L372.39023,170.25713Q371.5947,167.38855,371.58575,164.27002Q371.82727,154.6998,378.18216,148.34492Q384.53702,141.99002,394.1073,141.74852Q403.6775,141.99002,410.0324,148.34492Q416.38733,154.6998,416.6288,164.27002"/>
</g>
<g style="fill:rgb(255,255,255); fill-opacity:1.0; stroke-linejoin: miter">
<path d="M393.79807,191.29301Q393.52496,191.29301,393.25067,191.29549Q373.54642,192.46906,360.89975,206.01347Q349.89536,217.79893,348.60123,234.27417Q362.82028,250.75116,385.50046,254.34067Q389.55347,254.77866,393.43762,254.77866Q413.98776,254.77866,429.81168,242.51862Q436.15405,237.56665,440.78732,231.49207Q438.4542,214.89462,426.5336,203.76404Q413.17743,191.29301,393.79807,191.29301 Z"/>
</g>
<g style="fill:rgb(76,171,255); fill-opacity:1.0; stroke-linejoin: miter">
<path d="M343.1693,273.09735L343.1693,273.09735L760.1819,274.1112L771.2705,274.13815L771.21643,296.31528L760.1278,296.28833L343.1154,295.27454L332.02676,295.2476L332.0807,273.0704 Z"/>
</g>
<g style="fill:rgb(76,171,255); fill-opacity:1.0; stroke-linejoin: miter">
<path d="M341.3197,328.68112L341.3197,328.68112L572.4043,330.86642L583.49243,330.97125L583.28265,353.14746L572.1946,353.04263L341.10995,350.8574L330.0218,350.75256L330.23154,328.5763 Z"/>
</g>
<g style="fill:rgb(76,171,255); fill-opacity:1.0; stroke-linejoin: miter">
<path d="M620.3785,332.55853L620.3785,332.55853L761.1739,332.6225L772.2625,332.62753L772.2525,354.8048L761.1638,354.79977L620.3685,354.7358L609.2798,354.73077L609.2898,332.5535 Z"/>
</g>
<g style="fill:rgb(76,171,255); fill-opacity:1.0; stroke-linejoin: miter">
<path d="M336.56964,391.39905L336.56964,391.39905L419.13916,390.31635L430.22687,390.17096L430.51764,412.34628L419.42993,412.4917L336.8604,413.57437L325.7727,413.71976L325.48193,391.5444 Z"/>
</g>
<g style="fill:rgb(76,171,255); fill-opacity:1.0; stroke-linejoin: miter">
<path d="M489.63272,380.1571L489.63272,380.1571L638.9468,380.58215L650.0354,380.61377L649.9723,402.79095L638.8837,402.7593L489.5695,402.33423L478.4809,402.30267L478.54413,380.1255 Z"/>
</g>
<g style="fill:rgb(76,171,255); fill-opacity:1.0; stroke-linejoin: miter">
<path d="M698.7283,377.00455L698.7283,377.00455L761.2173,378.6751L772.30194,378.97147L771.7092,401.1408L760.6246,400.8445L698.13556,399.17386L687.0509,398.8775L687.6435,376.70822 Z"/>
</g>
<g style="fill:rgb(149,76,255); fill-opacity:1.0; stroke-linejoin: miter">
<path d="M321.59213,117.49274L321.59213,117.49274L776.8356,114.5577L784.2249,114.51003L784.32025,129.2886L776.9309,129.33629L321.6874,132.2714L314.2981,132.31903L314.20282,117.54039 Z"/>
</g>
</g>
<g id="layer4" opacity="0.0">
<g style="fill:rgb(0,0,0); fill-opacity:1.0; stroke-linejoin: miter">
<path d="M162.99207,69.18312L543.2898,69.183624L923.5875,69.18414Q923.5875,354.7912,923.5875,640.3983Q543.2898,640.39886,162.99207,640.39935Q162.99207,354.7912,162.99207,69.18312"/>
</g>
</g>
<g id="layer5" opacity="0.0">
</g>
</svg>